<svg xmlns="http://www.w3.org/2000/svg" viewBox="0 0 1440 320"><path fill="#2e1e52" fill-opacity="1" d="M0,64L16,96C32,128,64,192,96,202.7C128,213,160,171,192,165.3C224,160,256,192,288,176C320,160,352,96,384,58.7C416,21,448,11,480,16C512,21,544,43,576,74.7C608,107,640,149,672,192C704,235,736,277,768,272C800,267,832,213,864,202.7C896,192,928,224,960,224C992,224,1024,192,1056,176C1088,160,1120,160,1152,144C1184,128,1216,96,1248,90.7C1280,85,1312,107,1344,128C1376,149,1408,171,1424,181.3L1440,192L1440,320L1424,320C1408,320,1376,320,1344,320C1312,320,1280,320,1248,320C1216,320,1184,320,1152,320C1120,320,1088,320,1056,320C1024,320,992,320,960,320C928,320,896,320,864,320C832,320,800,320,768,320C736,320,704,320,672,320C640,320,608,320,576,320C544,320,512,320,480,320C448,320,416,320,384,320C352,320,320,320,288,320C256,320,224,320,192,320C160,320,128,320,96,320C64,320,32,320,16,320L0,320Z"></path></svg>